<svg version="1" xmlns="http://www.w3.org/2000/svg" width="1120" height="1120" viewBox="0 0 840.000000 840.000000"><path d="M632.3 183.8c-8.6 3.1-14.5 7.8-20.2 16.3-2.1 3-3 3.6-6.4 3.7-2.2.1-4.2.4-4.5.7-.3.2-1.2 0-2.1-.5-1-.5-2.3-.5-3.1 0-.8.5-2.1.5-3.1-.1-1.2-.6-2-.5-2.4.1-.4.6-1 .8-1.4.6-1-.6-6.8-.8-16.4-.4-4.5.2-7.9-.1-8.1-.7-.3-.6-.5-.5-.5.1-.1.8-1.2.9-3.5.4-1.9-.4-3.9-.4-4.5-.1-.6.4-2.3.6-3.8.5-1.6-.1-4.1-.3-5.8-.3-1.6 0-4.1-.1-5.5-.1-3.2-.1-2.7-.2-14.3.2-5.8.2-9.9-.1-10.1-.7-.3-.6-.5-.5-.5.1-.1.8-1.2.9-3.5.4-1.8-.4-4.1-.3-5 .2-1.7.9-1.7.9-2.1-4.2-.1-1.4-.3-3-.3-3.5-.3-1.8-9.8-.7-18 2-.7.3-1.3.4-1.5.3-.2-.2-9.6 5.2-11.6 6.7-2.8 2.1-12.7 12.1-14.6 14.8-3.1 4.5-7.3 12.7-9.1 18.2-2.5 7.6-3.1 10.8-3.8 19l-.5 6.1 4.2-.2 4.3-.2-.1 37.2c-.1 20.4-.3 37.7-.3 38.5-.1.7-.8 1.1-1.6.8-.8-.3-2.1.2-2.9 1.1-1.1 1.3-1.4 5.1-1.3 18.2.1 9.1.5 17.1.9 17.7.5.9.2 1.3-1 1.4-4.8.3-88.9.4-89.5.2-.6-.3 25.7-45.2 28.1-48 .6-.7 1.1-1.4 1.1-1.7 0-.7 12.7-21.8 14-23.3.5-.7 1-1.6 1-2.1 0-.4 1.5-.8 3.3-.8 11.3 0 14.8-22.2 4.6-29.4-5.2-3.8-11.4-.6-13.9 7.1-.8 2.4-2.6 4.9-4.4 6.2-1.7 1.2-7.7 6.6-13.3 12-5.5 5.5-10.3 10-10.7 10.1-.3 0-6.3-5.6-13.4-12.7-7.1-7-13.3-12.7-13.8-12.7s-3.1 3.1-5.9 6.8c-6.3 8.5-6.1 8.2-8.6 11.2-1.2 1.4-2.8 3.5-3.6 4.7-.9 1.3-1.9 2.3-2.3 2.3-.4 0-2.9-2.8-5.6-6.3-2.6-3.4-5.3-6.5-5.9-6.9-.5-.4-.7-.8-.3-.8.7 0-1.7-3.2-4.9-6.5-.6-.7-2.6-4.2-4.3-7.8-3.8-8-7.1-10-12.5-7.4-5 2.4-7.4 7.7-7 15.4.5 9.4 3.9 14.1 11.3 15.2.9.1 2.9 3.3 14.2 22.1 2.8 4.7 6.9 11.4 9.1 14.9 2.1 3.4 3.9 6.7 3.9 7.2s.5.9 1 .9c.6 0 1 .6 1 1.4 0 .8.6 2.1 1.2 2.8.7.8 2 2.7 2.9 4.3 2.6 4.9 4.4 8 5 8.5 1.2 1.1 7.3 12.5 6.9 13-.7.6-32.8.6-32.8 0 0-.3 0-.7-.2-1-.5-1.5-.4-15 .2-15 .4 0 .3-1.2-.1-2.8-.5-1.5-.5-3.6-.1-4.7.8-2.3-.6-7.2-2.8-9.8-1.8-2-8.4-2.3-10.4-.4-1 1.1-9.7 1.3-42.5 1.3h-41.2l.6-2.5c.7-3 .7-3.7-.3-7.1-.4-1.4-.8-9.9-.9-19-.3-17.6-.1-18.3 5.4-25 2.5-3.1 2.9-3.5 6.5-8.5 1.6-2.2 4-5.1 5.3-6.4 1.3-1.3 2.3-2.9 2.3-3.7 0-.7.4-1.4.9-1.6.5-.2 3.1-3.3 5.9-7 2.8-3.8 5.6-7.4 6.1-8 2.1-2.6 6-7.6 14.1-18.1 7.3-9.6 8.3-11.4 8.4-15.3 0-2.4-.4-4.8-1-5.4-1.7-1.7-218-1.6-220 0-.8.7-1.4 3-1.4 5.2 0 3.5 1.2 5.6 10 17.1 5.5 7.3 10.3 13.6 10.8 14.2.4.5 3 3.9 5.7 7.5s5.3 6.9 5.8 7.5c.4.5 5 6.6 10.2 13.5 5.2 6.9 10.1 13.4 11 14.5 2.1 2.7 2.1 33.1 0 37.2-1.7 3.2-1.9 6.7-.6 9.2.9 1.7-1 1.8-37.6 1.7-42.5-.1-42.4-.1-42.3 5.7.1 1.8.1 8.8.1 15.7v27.5c-.1 2.7-.1 5.7 0 6.5v41.5c-.1 2.7-.1 5.7 0 6.5v41.5c-.1 2.7-.1 5.7 0 6.5v41.5c-.1 2.7-.1 5.7 0 6.5v41.5c-.1 2.7-.1 5.7 0 6.5v41.5c-.1 2.7-.1 5.7 0 6.5v41.5c-.1 2.7-.1 5.9-.1 7 .1 1.1.1 6.9.1 12.9 0 5.9.4 11.7 1 12.7.9 1.8 4.7 1.9 139.4 1.9 98 0 138.4.3 138.7 1.1.6 1.9 7.8 1.9 9.6.1 1.6-1.6 11.4-1.7 140.7-1.2 108.6.4 139.5.8 141.2 1.7 2.9 1.7 5.3 1.6 7.3-.2 1.5-1.4 16.3-1.5 125.8-1.5H840V540.5c0-130.2-.3-176.4-1.1-176.3-.6.2-1.2-1-1.3-2.5-.1-1.6-.9-3.3-1.7-3.8-1.4-.7-1.6-4-1.7-24.1-.1-25.6-.1-25.7-3.2-31.8-5.2-10.2-16.9-17.1-29.4-17.5-16.4-.5-31.8 9.3-35.4 22.5-.2.8-.6 12.5-.8 25.9-.2 19.2-.6 24.7-1.7 26-.8.9-1.3 2.5-1.1 3.6.3 1.9-.2 2-7.6 2-4.4-.1-8.3-.4-8.7-.9-.4-.4-.9-7.4-.9-15.4-.2-19.1 0-18.1-2.7-19.1l-2.4-.9.1-32.4.1-32.3 3-.1c1.7-.1 3.5-.2 4.1-.3 1.7-.2.8-10-2.1-21.1-.3-1.4-.7-3-.8-3.5-.7-2.7-5.9-13-8.8-17.2-9-13.1-23.9-23.1-37.4-25-9.9-1.4-9.4-1.5-9.1 3.2.2 3.8 0 4.4-1.9 4.7-1.2.3-3.1.1-4.2-.3s-2.6-.4-3.3.1c-2.4 1.5-6.5-1-9.4-5.6-2.7-4.3-13.5-13.9-14.5-12.9-.2.3-1.1-.1-1.9-.7-3.3-2.8-15.3-3.3-21.9-1zm5.6 14.7c-.2 6-.9 6.5-7.1 5.4-2.1-.3-3.8-.3-3.8.1 0 .3-1.4.5-3 .2l-3.1-.4 3.1-2.9c1.6-1.6 3.3-2.9 3.6-2.9.3 0 1.9-.9 3.5-2.1 1.6-1.1 2.9-1.8 2.9-1.4 0 .3.8.1 1.8-.4.9-.6 1.8-1.1 2-1.1.1 0 .2 2.5.1 5.5zm16.6-1.5c1.7 1 4.1 2.9 5.4 4.2l2.5 2.2-2.5.7c-1.3.3-3.3.2-4.5-.2-1.1-.4-2.6-.4-3.3 0-.7.5-2.3.6-3.6.4-2-.4-2.3-1-2-5.1.1-2.6.3-4.8.4-5 .2-.6 4.6 1 7.6 2.8zm-43.3 64.9c1.5 2.5 4.8 6.7 7.5 9.2 5.1 4.9 15.6 10.4 17.9 9.5.8-.3 1.4-.2 1.4.2 0 2 12.6-.1 18.3-3 4.7-2.3 15.7-12.5 15.7-14.4 0-.7.5-1.4 1.1-1.6.5-.2 1.1-1.2 1.3-2.3.3-1.8 1.1-2 7.7-2h7.4l-.3 2.7c-.2 1.8.1 2.8 1 2.9.7.1 2 .2 2.8.3 1.3.1 1.5 4.4 1.5 32.4l.1 32.3-2.8.6c-1.5.3-2.9 1.1-3 1.7 0 .6-.2 8.2-.3 16.8-.1 8.7-.5 16.1-.8 16.5-.4.4-21.9.7-47.8.7l-47 .1-1.7 2.2c-1.2 1.6-2.1 2-3.1 1.4-3.6-2.3-10.1 2.3-10.1 7.1 0 1.5-.3 2.8-.7 2.9-2.5.3-71 .4-72 .1-.7-.2-1-.9-.5-1.6.4-.6.7-8.7.7-18l.1-16.9-2.6-1.5-2.6-1.5.1-37.6v-37.6l2.2.2c2.3.3 3.7-2 2.8-4.7-.5-1.7 2.3-1.8 51.3-1.8h51.8l2.6 4.7zm52.6-3c-7.6 10.1-20.6 14-31.1 9.3-4.2-1.9-12.7-8.7-12.7-10.2 0-.4 10.1-.8 22.5-.8 20.6.1 22.4.2 21.3 1.7zm-308 40.3l12.9 12.6 12.6-12.4c6.9-6.8 13.1-12.4 13.8-12.4.7 0 1 .2.7.6-.3.3 0 2.6.8 5.1 1.3 4.3 1.3 4.8-.9 8.2-3.1 5-4.4 7.3-5.7 9.6-.6 1.1-1.8 3.2-2.8 4.7-.9 1.5-9.8 16.3-19.7 32.8-10.9 18.1-18.6 30-19.5 30-.8 0-4.5-5.1-8.4-11.8-3.9-6.4-7.2-11.9-7.5-12.2-.3-.3-1.1-1.4-1.7-2.5-.6-1.1-6.5-11.2-13.3-22.5-6.7-11.3-12.8-21.4-13.4-22.5-.7-1.1-1.5-2.2-1.8-2.5-.4-.3-.9-1.5-1.3-2.8-.4-1.2-1.2-2.2-1.7-2.2s-.3-1.3.6-3c.8-1.6 1.6-4.1 1.7-5.5.1-1.4.4-2.5.6-2.5.7 0 2.7 2.5 10.2 12.5 8.1 10.8 9.3 12.1 9.9 10.2.2-.6 1.1-1.8 1.9-2.6.8-.8 4-4.9 7.1-9 7.1-9.6 10.3-13.2 11.2-12.9.4.2 6.6 6 13.7 13z"/></svg>