<?xml version="1.0" encoding="utf-8"?>
<!-- Generator: Adobe Illustrator 16.0.0, SVG Export Plug-In . SVG Version: 6.00 Build 0)  -->
<!DOCTYPE svg PUBLIC "-//W3C//DTD SVG 1.1//EN" "http://www.w3.org/Graphics/SVG/1.1/DTD/svg11.dtd">
<svg version="1.1" id="Layer_1" xmlns="http://www.w3.org/2000/svg" xmlns:xlink="http://www.w3.org/1999/xlink" x="0px" y="0px"
	 width="28.488px" height="38.336px" viewBox="35.756 30.832 28.488 38.336" enable-background="new 35.756 30.832 28.488 38.336"
	 xml:space="preserve">
<g>
	<path fill="#F2F1E7" d="M64.008,49.566L50.98,31.357c-0.235-0.33-0.616-0.524-1.021-0.525c-0.003,0-0.003,0-0.003,0
		c-0.407,0.001-0.788,0.198-1.024,0.53L35.988,49.57c-0.272,0.383-0.308,0.888-0.091,1.306c0.213,0.417,0.646,0.681,1.118,0.681
		h6.092l0,16.354c0,0.694,0.562,1.257,1.258,1.257h11.271c0.694,0,1.258-0.562,1.258-1.259V51.557h6.094
		c0.47,0,0.901-0.265,1.118-0.684C64.32,50.456,64.283,49.95,64.008,49.566z"/>
</g>
</svg>
