<?xml version="1.0" encoding="utf-8"?>
<!-- Generator: Adobe Illustrator 16.0.0, SVG Export Plug-In . SVG Version: 6.00 Build 0)  -->
<!DOCTYPE svg PUBLIC "-//W3C//DTD SVG 1.1//EN" "http://www.w3.org/Graphics/SVG/1.1/DTD/svg11.dtd">
<svg version="1.1" id="Layer_1" xmlns="http://www.w3.org/2000/svg" xmlns:xlink="http://www.w3.org/1999/xlink" x="0px" y="0px"
	 width="36.004px" height="35.11px" viewBox="230 89.443 36.004 35.11" enable-background="new 230 89.443 36.004 35.11"
	 xml:space="preserve">
<g>
	<path fill="#F2F1E7" d="M247.999,89.443c-9.94,0-17.999,8.061-17.999,18.002c0,7.951,5.156,14.699,12.311,17.078
		c0.9,0.166,1.229-0.389,1.229-0.866c0-0.427-0.016-1.558-0.023-3.062c-5.007,1.089-6.062-2.413-6.062-2.413
		c-0.818-2.078-1.999-2.633-1.999-2.633c-1.636-1.115,0.124-1.094,0.124-1.094c1.807,0.128,2.758,1.854,2.758,1.854
		c1.604,2.752,4.213,1.955,5.238,1.498c0.162-1.166,0.629-1.957,1.143-2.408c-3.996-0.455-8.197-1.998-8.197-8.896
		c0-1.966,0.701-3.572,1.852-4.832c-0.184-0.453-0.803-2.283,0.178-4.762c0,0,1.512-0.484,4.95,1.846
		c1.435-0.4,2.976-0.602,4.506-0.605c1.528,0.006,3.069,0.205,4.506,0.605c3.438-2.33,4.945-1.846,4.945-1.846
		c0.981,2.479,0.364,4.309,0.18,4.762c1.154,1.26,1.851,2.866,1.851,4.832c0,6.913-4.209,8.438-8.219,8.88
		c0.646,0.558,1.223,1.657,1.223,3.337c0,2.404-0.021,4.346-0.021,4.936c0,0.482,0.323,1.044,1.236,0.865
		c7.146-2.384,12.299-9.125,12.299-17.076C266,97.504,257.941,89.443,247.999,89.443z"/>
</g>
</svg>
