<?xml version="1.0" encoding="utf-8"?>
<!-- Generator: Adobe Illustrator 16.0.0, SVG Export Plug-In . SVG Version: 6.00 Build 0)  -->
<!DOCTYPE svg PUBLIC "-//W3C//DTD SVG 1.1//EN" "http://www.w3.org/Graphics/SVG/1.1/DTD/svg11.dtd">
<svg version="1.1" id="Layer_1" xmlns="http://www.w3.org/2000/svg" xmlns:xlink="http://www.w3.org/1999/xlink" x="0px" y="0px"
	 width="38.501px" height="31.289px" viewBox="30.748 34.356 38.501 31.289" enable-background="new 30.748 34.356 38.501 31.289"
	 xml:space="preserve">
<path fill="#F2F1E7" d="M69.249,38.06c-1.416,0.628-2.938,1.052-4.536,1.243c1.63-0.978,2.883-2.525,3.473-4.369
	c-1.526,0.905-3.218,1.563-5.016,1.916c-1.44-1.534-3.494-2.494-5.766-2.494c-4.362,0-7.899,3.536-7.899,7.899
	c0,0.619,0.07,1.222,0.205,1.801c-6.564-0.33-12.385-3.475-16.281-8.254c-0.68,1.167-1.069,2.524-1.069,3.971
	c0,2.741,1.394,5.158,3.514,6.575c-1.295-0.042-2.513-0.397-3.578-0.988c-0.001,0.033-0.001,0.065-0.001,0.1
	c0,3.826,2.723,7.019,6.336,7.745c-0.663,0.18-1.36,0.276-2.081,0.276c-0.509,0-1.004-0.049-1.487-0.142
	c1.005,3.138,3.922,5.422,7.379,5.486c-2.704,2.118-6.109,3.382-9.81,3.382c-0.637,0-1.266-0.037-1.884-0.111
	c3.495,2.241,7.647,3.549,12.107,3.549c14.529,0,22.475-12.036,22.475-22.473c0-0.342-0.009-0.683-0.023-1.023
	C66.852,41.035,68.19,39.644,69.249,38.06z"/>
</svg>
