<?xml version="1.0" encoding="utf-8"?>
<!-- Generator: Adobe Illustrator 16.0.0, SVG Export Plug-In . SVG Version: 6.00 Build 0)  -->
<!DOCTYPE svg PUBLIC "-//W3C//DTD SVG 1.1//EN" "http://www.w3.org/Graphics/SVG/1.1/DTD/svg11.dtd">
<svg version="1.1" id="Layer_1" xmlns="http://www.w3.org/2000/svg" xmlns:xlink="http://www.w3.org/1999/xlink" x="0px" y="0px"
	 width="100px" height="100px" viewBox="0 0 100 100" enable-background="new 0 0 100 100" xml:space="preserve">
<g>
	<path d="M78.914,45.081l-7.706-0.76c-0.496-1.849-1.233-3.624-2.202-5.294l4.921-5.995c0.527-0.645,0.479-1.583-0.109-2.17
		l-4.679-4.682c-0.315-0.314-0.729-0.475-1.145-0.475c-0.364,0-0.729,0.122-1.027,0.369l-5.994,4.921
		c-1.674-0.97-3.447-1.707-5.295-2.202l-0.759-7.708c-0.081-0.828-0.778-1.459-1.61-1.459h-6.617c-0.832,0-1.528,0.631-1.611,1.459
		l-0.758,7.711c-1.848,0.495-3.622,1.232-5.291,2.202l-5.999-4.923c-0.3-0.247-0.663-0.368-1.026-0.368
		c-0.416,0-0.829,0.159-1.144,0.475l-4.68,4.681c-0.588,0.586-0.636,1.528-0.109,2.17l4.925,5.997
		c-0.969,1.668-1.708,3.442-2.202,5.292l-7.711,0.76c-0.829,0.079-1.461,0.776-1.461,1.609v6.618c0,0.832,0.632,1.53,1.46,1.61
		l7.711,0.759c0.495,1.85,1.233,3.623,2.202,5.291l-4.921,5.996c-0.531,0.643-0.486,1.583,0.105,2.17l4.68,4.682
		c0.315,0.314,0.728,0.474,1.144,0.474c0.364,0,0.728-0.122,1.027-0.366l5.995-4.922c1.673,0.97,3.442,1.707,5.295,2.203
		l0.758,7.709c0.082,0.829,0.778,1.46,1.611,1.46h6.618c0.832,0,1.529-0.631,1.61-1.46l0.759-7.707
		c1.852-0.496,3.621-1.233,5.295-2.205l5.994,4.922c0.301,0.244,0.663,0.366,1.027,0.366c0.416,0,0.829-0.159,1.145-0.474
		l4.679-4.682c0.591-0.587,0.637-1.527,0.104-2.17l-4.917-5.994c0.969-1.67,1.706-3.443,2.202-5.293l7.707-0.759
		c0.828-0.082,1.46-0.778,1.46-1.61V46.69C80.375,45.858,79.743,45.162,78.914,45.081z M50.001,58.963
		c-4.952,0-8.965-4.014-8.965-8.963c0-4.952,4.013-8.963,8.965-8.963c4.948,0,8.961,4.012,8.961,8.963
		C58.963,54.949,54.949,58.963,50.001,58.963z"/>
</g>
</svg>
