<?xml version="1.0" encoding="utf-8"?>
<!-- Generator: Adobe Illustrator 16.0.0, SVG Export Plug-In . SVG Version: 6.00 Build 0)  -->
<!DOCTYPE svg PUBLIC "-//W3C//DTD SVG 1.1//EN" "http://www.w3.org/Graphics/SVG/1.1/DTD/svg11.dtd">
<svg version="1.1" id="Layer_1" xmlns="http://www.w3.org/2000/svg" xmlns:xlink="http://www.w3.org/1999/xlink" x="0px" y="0px"
	 width="36px" height="36px" viewBox="32 32 36 36" enable-background="new 32 32 36 36" xml:space="preserve">
<g>
	<path fill="#000000" d="M65.334,32H34.657C33.19,32,32,33.163,32,34.594v30.809C32,66.836,33.19,68,34.657,68h30.677
		C66.802,68,68,66.836,68,65.402V34.594C68,33.163,66.802,32,65.334,32z M42.677,62.677h-5.342V45.498h5.342V62.677z M40.006,43.148
		c-1.711,0-3.095-1.387-3.095-3.097c0-1.708,1.383-3.095,3.095-3.095c1.708,0,3.095,1.387,3.095,3.095
		C43.101,41.762,41.713,43.148,40.006,43.148z M62.675,62.677h-5.333v-8.354c0-1.993-0.039-4.556-2.775-4.556
		c-2.779,0-3.203,2.17-3.203,4.411v8.499h-5.337v-17.18h5.123v2.346h0.073c0.713-1.351,2.455-2.774,5.053-2.774
		c5.403,0,6.401,3.557,6.401,8.185L62.675,62.677L62.675,62.677z"/>
</g>
</svg>
