<?xml version="1.0" encoding="utf-8"?>
<!-- Generator: Adobe Illustrator 18.1.1, SVG Export Plug-In . SVG Version: 6.00 Build 0)  -->
<!DOCTYPE svg PUBLIC "-//W3C//DTD SVG 1.1//EN" "http://www.w3.org/Graphics/SVG/1.1/DTD/svg11.dtd">
<svg version="1.1" xmlns="http://www.w3.org/2000/svg" xmlns:xlink="http://www.w3.org/1999/xlink" x="0px" y="0px" viewBox="0 0 840 480" xml:space="preserve">
<g id="acc-text">
	<path d="M302.8,441.9c1.1-0.7,1.1-0.7,1.3-1.1c0.2-0.4,0.2-1.1,0.2-2.2V429c0-2-0.2-2.7-1.6-3.1h3.6c0.7,0,1.3,0,2.4,0s2.2,0,2.9,0
		c4,0,6.9,0.7,9.3,2c2.7,1.3,4,3.6,4,5.8c0,3.1-2.7,6-6.9,7.3c-2,0.7-4.4,0.9-9.6,0.9H302.8L302.8,441.9z M308.1,439.9
		c1.1,0.2,1.6,0.2,2.7,0.2c3.1,0,5.3-0.4,6.9-1.1c2.4-1.1,3.6-2.7,3.6-4.9c0-1.8-0.9-3.3-2.4-4.7c-1.6-1.1-4.2-1.8-7.3-1.8
		c-1.1,0-2,0-3.3,0.2V439.9L308.1,439.9z"/>
	<path d="M353.9,429.2c0-2-0.2-2.7-1.6-3.1h6.9c-1.3,0.4-1.6,1.1-1.6,3.1v9.6c0,2,0.2,2.7,1.6,3.1h-6.9c1.3-0.4,1.6-1.1,1.6-3.1
		C353.9,438.8,353.9,429.2,353.9,429.2z"/>
	<path d="M401.2,429c-1.6-0.9-3.6-1.6-5.8-1.6c-2.9,0-4.9,0.9-4.9,2.2c0,1.1,1.1,1.8,5.3,3.1c3.1,0.9,4.2,1.3,5.3,2
		c1.3,0.7,2,1.6,2,2.7c0,1.1-0.9,2.4-2.2,3.3c-1.8,1.1-4.4,1.8-7.6,1.8c-2.2,0-4.2-0.2-6.4-0.7l-1.1-2.9c2.4,1.3,5.1,2,8,2
		c3.1,0,5.3-1.1,5.3-2.4c0-0.7-0.4-1.3-1.1-1.8c-0.9-0.4-1.8-0.9-4.7-1.8c-2.9-0.9-4-1.3-5.1-2c-1.1-0.7-2-1.8-2-2.7
		c0-2.7,3.6-4.2,9.1-4.2c2,0,3.6,0.2,5.6,0.4L401.2,429L401.2,429z"/>
	<path d="M446.1,428.8c-0.4-0.7-1.3-0.9-3.3-0.9c-0.9,0-0.9,0-2.4,0h-0.7V439c0,1.6,0.4,2.2,2,2.9h-7.1c1.3-0.4,1.6-1.1,1.6-3.1
		v-10.9c-0.7,0-2,0-2.9,0c-2.2,0-3.1,0.2-4.7,0.9l1.3-2.9c0.4,0,1.1,0.2,1.8,0.2h13.8c0.7,0,1.3,0,1.3,0c0.2,0,0.4,0,0.7,0
		L446.1,428.8z"/>
	<path d="M478.1,438.8c0,2,0.2,2.7,1.6,3.1h-6.9c1.3-0.4,1.6-1.1,1.6-3.1v-9.6c0-2-0.2-2.7-1.6-3.1h5.3c0.2,0,0.9,0,1.8,0
		c0.7,0,1.1,0,1.6,0c2.4,0,4,0.2,5.3,0.9c1.6,0.7,2.4,2,2.4,3.1c0,1.8-2.4,3.6-5.8,4.2c5.3,4.9,8.2,6.7,11.1,7.8
		c-2.2,0.2-2.7,0.2-3.3,0.2c-2,0-3.1-0.4-5.6-2.4c-2.2-1.6-4.4-3.8-6.4-6c4-0.4,6-1.6,6-3.3c0-1.6-1.8-2.7-4.4-2.7
		c-0.9,0-1.3,0-2.4,0.2L478.1,438.8L478.1,438.8z"/>
	<path d="M520.1,429.2c0-2-0.2-2.7-1.6-3.1h6.9c-1.3,0.4-1.6,1.1-1.6,3.1v9.6c0,2,0.2,2.7,1.6,3.1h-6.9c1.3-0.4,1.6-1.1,1.6-3.1
		V429.2z"/>
	<path d="M571.7,429.2c-2.4-0.9-4.4-1.3-6.7-1.3c-5.1,0-8.7,2.4-8.7,5.8c0,3.8,4,6.7,9.1,6.7c2.4,0,4.9-0.4,8-1.6l-1.8,2.9
		c-2,0.4-3.6,0.7-5.6,0.7c-8.2,0-13.8-3.3-13.8-8.2s5.3-8.2,12.9-8.2c1.8,0,4,0.2,6.4,0.7V429.2z"/>
	<path d="M615.4,428.8c-0.4-0.7-1.3-0.9-3.3-0.9c-0.9,0-0.9,0-2.4,0H609V439c0,1.6,0.4,2.2,2,2.9h-7.1c1.3-0.4,1.6-1.1,1.6-3.1
		v-10.9c-0.7,0-2,0-2.9,0c-2.2,0-3.1,0.2-4.7,0.9l1.3-2.9c0.4,0,1.1,0.2,1.8,0.2h13.6c0.7,0,1.3,0,1.3,0c0.2,0,0.4,0,0.7,0
		L615.4,428.8z"/>
	<path d="M320.6,345.9c-7.8,0-14.2,2.7-19.1,8c-4.9,5.1-7.3,11.6-7.3,20c0,8.2,2.4,15.1,7.1,20.9c5.1,5.3,11.1,8,18.4,8
		c7.6,0,14-2.4,18.9-7.8c5.1-5.3,7.8-12,7.8-20c0-8.4-2.7-15.3-7.8-21.1C333.9,348.8,327.7,345.9,320.6,345.9L320.6,345.9z
		 M319.9,410.3c-5.1,0-10.2-0.9-14.9-2.4c-4.4-1.8-8.4-4-11.8-7.3c-3.8-3.1-6.4-7.1-8.2-11.6c-1.8-4.4-2.7-9.1-2.7-13.8
		c0-3.8,0.4-7.6,1.8-11.3c0.9-3.6,2.9-6.9,5.1-10c3.8-4.9,8-8.7,13.6-11.3c5.3-2.7,10.9-4,17.1-4c5.3,0,10.2,1.1,15.1,2.4
		c4.7,1.8,8.7,4,12,7.3c3.3,3.1,6.2,6.9,8.2,11.6c1.8,4.4,2.9,9.3,2.9,14.4c0,4.7-1.1,9.3-3.6,13.8c-2,4.7-5.1,8.9-8.7,12.2
		c-3.3,3.3-7.3,5.8-11.6,7.3C329.7,409.4,325,410.3,319.9,410.3L319.9,410.3z"/>
	<path d="M360.3,408.8c1.6-1.3,2.4-2.7,3.1-4.4s1.1-4.4,1.1-7.6v-44.9c0-3.1-0.4-5.8-1.1-7.6s-1.6-3.1-3.1-4.4h19.1
		c-1.6,1.6-2.7,2.9-3.3,4.4c-0.7,1.8-0.7,4.4-0.7,7.6v48c2.4,0.4,4.9,0.4,6.9,0.7c2.2,0.2,4,0.2,5.6,0.2c3.3,0,6.7-0.4,10-1.1
		c3.1-1.1,6.2-2.4,9.1-4.4l-4.9,13.6H360.3L360.3,408.8z"/>
	<path d="M405.4,408.8c1.6-1.3,2.4-2.7,3.1-4.4s1.1-4.4,1.1-7.6v-44.9c0-3.3-0.4-6-1.1-7.8c-0.9-1.8-1.8-3.1-3.1-4.4h19.1
		c-1.6,1.3-2.7,2.7-3.1,4.4c-0.7,1.8-1.1,4.4-1.1,7.8v48c2.7,0.4,5.1,0.4,7.3,0.7c2,0.2,3.8,0.2,5.3,0.2c3.6,0,6.9-0.4,10-1.1
		c3.1-1.1,6.2-2.4,9.3-4.4l-5.1,13.6H405.4L405.4,408.8z"/>
	<path d="M453.9,408.8c1.8-1.3,2.4-2.7,3.1-4.4c0.7-1.8,1.1-4.4,1.1-7.6v-44.4c0-3.3-0.4-6-1.1-7.6c-0.7-1.8-1.6-3.1-3.1-4.4h37.6
		V351c-1.6-1.1-3.3-2-5.6-2.7c-2-0.7-4.4-0.9-6.9-0.9c-1.6,0-2.7,0-4.4,0.4c-1.8,0.2-3.8,0.4-5.8,1.1v19.1h16.9v10
		c-0.9-0.9-2-1.6-3.3-1.8c-1.3-0.4-3.8-0.7-7.3-0.7h-6v24.9c2.4,0.4,4.9,0.4,7.1,0.7c1.8,0.4,3.8,0.4,5.3,0.4c3.6,0,6.9-0.4,9.8-1.1
		c3.1-1.1,6.4-2.4,9.3-4.4l-5.1,13.3L453.9,408.8L453.9,408.8z"/>
	<path d="M557.7,351.2c-3.1-1.8-6-3.3-8.7-4.2c-2.9-1.1-6-1.8-8.9-1.8c-8,0-14.2,2.9-19.1,8c-5.1,5.3-7.3,12-7.3,20.7
		s2.4,15.8,7.6,21.1c5.3,5.1,11.8,7.3,20.7,7.3c2,0,4-0.2,6.4-0.2c2.2-0.4,4.4-1.1,7.1-1.8v-14.2c0-3.8-0.4-6.2-0.9-8
		c-0.7-1.6-1.8-2.9-3.1-4.2h13.3v33.3c-4.7,1.1-8.7,1.8-12.4,2.4c-3.8,0.7-7.3,0.7-10.7,0.7c-4.7,0-9.1-0.4-12.9-1.1
		c-3.8-1.1-7.3-2.4-10.2-4.4c-5.3-3.1-9.3-7.1-12.2-12.4c-2.9-5.3-4-10.9-4-17.3c0-5.1,0.7-9.8,2.7-14.4c2.2-4.4,5.3-8.7,9.1-12.4
		c3.3-3.1,7.6-5.6,12.2-7.3c4.4-1.6,9.6-2.4,14.9-2.4c2.4,0,5.1,0.4,8,0.7c2.9,0.4,6,0.9,9.3,1.6L557.7,351.2L557.7,351.2z"/>
	<path d="M571,408.8c1.6-1.3,2.4-2.7,3.1-4.4s1.1-4.4,1.1-7.6v-44.4c0-3.3-0.4-6-1.1-7.6c-0.7-1.8-1.8-3.1-3.1-4.4h37.6V351
		c-1.8-1.1-3.6-2-5.8-2.7c-2-0.7-4.2-0.9-6.7-0.9c-1.6,0-2.9,0-4.4,0.4c-1.8,0.2-3.6,0.4-5.6,1.1v19.1h16.4v10
		c-0.7-0.9-1.8-1.6-3.1-1.8c-1.3-0.4-3.8-0.7-7.3-0.7h-6v24.9c2.4,0.4,4.7,0.4,6.9,0.7c2,0.4,3.8,0.4,5.6,0.4c3.3,0,6.7-0.4,9.8-1.1
		c3.1-1.1,6-2.4,9.1-4.4l-4.7,13.3L571,408.8L571,408.8z"/>
	<path d="M287.2,418.6l-7.3,18.4c-5.1,1.8-9.3,3.1-13.8,3.8c-4.4,0.9-8.4,1.1-12.2,1.1c-6,0-11.6-0.7-16.9-2.2
		c-5.3-1.6-10.4-3.8-15.3-6.4c-8-4.7-13.6-10.9-18.2-19.1c-4.2-7.8-6.2-16.7-6.2-26.2c0-7.1,1.6-14.4,4.4-21.1
		c3.1-7.1,7.6-12.9,13.3-18.4c5.1-4.7,11.1-8.4,18-10.9c6.7-2.4,13.8-3.8,21.3-3.8c3.8,0,7.3,0.4,11.6,1.1c4,0.4,8.2,1.6,12.9,3.1
		v16.4c-4.9-2.4-9.1-4.4-13.3-5.6c-4.2-1.1-8.2-1.8-12.2-1.8c-11.6,0-20.9,3.8-28,11.1c-6.7,6.9-10.2,16.2-10.2,28.2
		c0,12.9,3.3,23.3,10.7,31.1c7.3,7.8,16.9,12,28.4,12c4.9,0,9.8-0.9,15.3-2.4C275.2,424.6,281,422.3,287.2,418.6L287.2,418.6z"/>
	<path d="M260.1,175.7h30.7l-14.7-40.2L260.1,175.7L260.1,175.7z M246.1,210.8c-0.4,1.1-0.7,2.4-0.9,3.1c-0.4,1.3-0.4,2.4-0.4,3.8
		c0,0.9,0.4,2,1.1,3.1c0.7,1.3,2,2.4,3.8,4H225c2-1.3,3.8-3.1,5.6-5.8c1.3-2.4,3.1-5.6,4.9-10l29.1-73.8c0.4-1.6,1.1-2.7,1.3-4.4
		c0.2-1.1,0.4-2.4,0.4-3.3c0-1.1-0.2-2.4-0.9-3.3c-0.4-0.9-1.6-1.8-2.7-2.9h23.6l32.7,86.9c1.8,3.8,3.3,7.1,5.3,9.3
		c1.8,2.4,4,5.1,6.9,7.1h-29.8l0.4-0.4c2.9-2.7,4.2-4.9,4.2-6.2c0-1.8-0.4-3.8-1.8-7.1c-0.2-0.4-0.2-0.7-0.4-1.1l-9.1-24h-38
		L246.1,210.8L246.1,210.8z"/>
	<path d="M378.6,224.6v-5.3c-3.6,2.4-6.9,4.2-10.2,5.3s-6.9,1.8-10.4,1.8c-4,0-7.6-0.7-10.9-1.8c-3.1-1.3-5.6-3.3-8-6
		c-1.8-2-3.1-4.7-3.8-7.3c-0.7-2.4-1.1-6.4-1.1-11.1v-32.2c0-3.6-0.4-6-1.1-7.8c-0.4-1.6-1.6-2.9-2.9-4.2h18.4
		c-1.8,1.3-2.4,2.7-3.1,4.2c-0.7,1.8-0.9,4.2-0.9,7.8v30c0,4.9,0.2,8.4,0.7,10.9c0.4,2,1.3,3.8,2.4,5.1c1.3,1.8,3.1,3.1,5.3,3.8
		c2.4,0.7,4.7,1.1,8,1.1c2.4,0,4.9-0.4,6.9-1.1c2.2-0.9,4-1.8,6-3.3c1.3-1.1,2.4-2.7,3.1-4.4c0.7-1.8,1.1-4.4,1.1-8v-34.2
		c0-3.6-0.2-6.2-1.1-7.8c-0.4-1.6-1.6-3.1-2.9-4.2h18.7c-1.6,1.1-2.4,2.7-3.1,4.4c-0.7,1.8-1.1,4.4-1.1,7.6v44.4
		c0,3.6,0.4,6,1.1,7.8c0.4,1.8,1.6,3.1,3.1,4.4h-14.2V224.6z"/>
	<path d="M406.6,223.2l-3.1-12.4c3.8,2.7,7.8,4.9,11.8,6c3.3,1.3,7.3,1.8,10.9,1.8c4.7,0,8.7-0.9,11.6-3.1c2.9-2,4.4-4.4,4.4-8
		c0-0.7-0.2-1.8-0.4-2.7c-0.2-0.9-0.9-1.8-1.1-2.7c-1.3-2-5.6-4.4-12.9-8c-1.8-1.1-3.1-1.6-4.2-2.2c-6.7-3.3-11.3-6.4-13.8-9.3
		c-2.4-2.7-3.6-6.2-3.6-10.2c0-5.3,2.2-10.2,6.7-13.1c4.4-3.3,10.9-5.3,18.7-5.3c2.2,0,4.7,0.4,7.3,0.7c2.7,0.4,5.8,0.7,8.9,1.1
		v11.6c-2.7-2.2-5.6-3.8-8.7-4.9c-2.9-1.1-5.8-1.8-8.7-1.8c-4,0-7.3,1.1-9.6,2.4c-2.4,1.8-3.3,4-3.3,6.7c0,2.4,0.7,4.4,2.4,6.4
		c2,1.8,6.2,4.4,12.7,7.3c0.4,0.2,1.1,0.4,1.8,0.7c5.8,2.7,9.6,5.1,12.7,7.3c1.8,1.6,3.8,3.3,4.7,5.3c1.1,2.4,1.8,4.9,1.8,7.3
		c0,6-2.9,11.1-8.2,15.3c-5.3,4-12.2,6-20.4,6c-2.4,0-5.3-0.2-8.2-0.9C413.7,225.2,410.1,224.3,406.6,223.2L406.6,223.2z"/>
	<path d="M490.3,212.6c0,3.6,0.2,6,1.1,7.8c0.4,1.8,1.6,3.1,2.9,4.4h-19.1c1.6-1.3,2.4-2.4,3.1-4.4c0.7-1.8,1.1-4.2,1.1-7.8v-49.1
		h-5.8c-3.8,0-6.9,0.4-9.6,1.1c-2.4,0.7-4.2,1.6-5.3,2.9l3.1-11.3h49.3l-3.6,10.9c-0.9-1.1-2.4-2-3.8-2.4c-1.8-0.7-3.8-1.1-6.4-1.1
		h-7.6L490.3,212.6L490.3,212.6z"/>
	<path d="M534.6,212.6c0,3.6,0.2,6,0.7,7.8c0.7,1.8,1.8,3.1,3.6,4.4h-19.1c1.6-1.3,2.4-2.7,3.1-4.4c0.4-1.8,0.9-4.2,0.9-7.8v-44.7
		c0-3.8-0.4-6.2-0.9-8c-0.7-1.6-1.8-3.1-3.1-4.4h19.1c-1.8,1.3-2.9,2.9-3.6,4.4c-0.4,1.8-0.7,4.2-0.7,8V212.6L534.6,212.6z"/>
	<path d="M615.2,155.9c-1.8,1.3-2.9,2.7-3.6,4.4c-0.7,1.6-0.9,4.2-0.9,7.8v58.2c-2.4,0-4.7-0.9-6.9-2.2c-2.2-1.3-4.9-4.2-8-8.4
		l-35.6-44.9v41.8c0,3.6,0.2,6.2,0.9,8c0.7,1.6,1.6,2.9,3.3,4.2h-16c1.6-1.3,2.4-2.7,3.1-4.4s1.1-4.2,1.1-7.8v-44.4
		c0-3.6-0.4-6.2-1.1-7.8c-0.7-1.8-1.6-3.1-3.1-4.4h14l40.9,51.8v-39.6c0-3.6-0.4-6.2-1.1-7.8c-0.7-1.8-1.6-3.1-3.1-4.4H615.2
		L615.2,155.9z"/>
	<path d="M165,251.4c-7.6,0-13.6,3.1-18.4,8.2c-4.7,5.3-7.1,12.2-7.1,20.7c0,8.4,2.4,15.8,7.1,21.3c4.7,5.8,10.7,8.7,17.8,8.7
		c7.3,0,13.6-2.4,18.4-8c5.1-5.3,7.3-12.4,7.3-20.7c0-8.4-2.4-15.8-7.3-21.3C177.9,254.6,171.9,251.4,165,251.4L165,251.4z
		 M164.3,317.7c-5.1,0-10-0.7-14.4-2.4c-4.7-1.8-8.2-4-11.6-7.1c-3.3-3.8-6-7.6-7.6-12.2c-2.2-4.7-2.9-9.3-2.9-14.2
		c0-3.8,0.4-8,1.6-11.6c1.3-3.8,2.9-7.3,5.1-10.4c3.8-4.9,8-8.9,12.9-11.6c5.3-2.4,10.9-4,17.1-4c5.1,0,10.2,1.1,14.7,2.4
		c4.4,1.8,8.2,4,11.6,7.3c3.8,3.3,6.4,7.3,8.2,12.2c1.8,4.4,2.9,9.3,2.9,14.7c0,5.1-1.3,9.8-3.6,14.4c-2,4.4-4.7,8.9-8.4,12.7
		c-3.3,3.1-7.3,5.3-11.6,7.1C173.9,317,169.4,317.7,164.3,317.7L164.3,317.7z"/>
	<path d="M198.1,316.6c1.6-1.8,3.1-3.8,3.8-5.3c0.9-1.8,1.8-4,2-6.4l6.2-47.6c0.4-1.1,0.4-2,0.7-3.1c0-0.9,0-1.3,0-2
		c0-1.1-0.4-2-0.7-2.9c-0.4-0.9-1.3-1.8-2.7-3.1h16.4l19.6,52.7l19.1-52.7h16c-1.1,1.1-1.8,2-2.4,3.1s-0.7,2.4-0.7,4
		c0,0.9,0,1.6,0,2.2c0,0.4,0,1.1,0,1.8l6,48.4c0.2,2.4,0.7,4.4,1.3,6.4c0.7,1.6,1.8,3.1,3.3,4.7h-17.8c1.1-1.1,2.2-2.2,2.4-3.6
		c0.7-1.1,1.1-2.7,1.1-4.4c0-0.4,0-0.7,0-0.9c0-0.4,0-0.4,0-0.7l-5.3-49.8l-22.7,60c-1.6-0.9-3.1-2.4-4.4-4.4
		c-1.1-1.6-2.7-4.4-3.8-7.6l-18.2-47.8l-6.4,46.4c-0.4,1.8-0.4,2.7-0.4,3.3c0,0.7,0,1.1,0,1.3c0,1.8,0.2,3.3,0.9,4.4
		c0.4,1.1,1.6,2.4,3.1,3.8L198.1,316.6L198.1,316.6z"/>
	<path d="M282.8,316.1c1.8-1.8,2.9-3.8,3.8-5.3c0.7-1.8,1.8-4,2-6.4l6.2-47.6c0.2-1.1,0.4-2,0.7-3.1c0-0.9,0-1.3,0-2
		c0-1.1-0.4-2-0.7-2.9c-0.4-0.7-1.1-1.8-2.4-3.1H309l19.8,52.7l19.1-52.7h16.2c-1.3,1.1-1.8,2-2.4,3.1c-0.4,1.1-0.7,2.4-0.7,4
		c0,0.9,0,1.6,0,2.4c0,0.4,0.2,0.9,0.2,1.6l6,48.4c0.2,2.4,0.7,4.4,1.3,6.4c0.7,1.6,1.8,3.1,3.3,4.7h-18c1.3-1.1,2.2-2.2,2.4-3.6
		c0.7-1.1,1.1-2.4,1.1-4.4c0-0.2,0-0.7,0-0.9c0-0.4,0-0.4-0.2-0.7l-5.3-49.8l-22.7,60.2c-1.8-1.1-3.3-2.7-4.7-4.4
		c-1.1-1.8-2.4-4.4-3.8-7.8l-18.4-47.8l-6.4,46.4c-0.2,1.8-0.4,2.7-0.4,3.3c0,0.7,0,1.1,0,1.3c0,2,0.4,3.3,0.9,4.4
		c0.7,1.1,1.8,2.4,3.1,3.8L282.8,316.1L282.8,316.1z"/>
	<path d="M412.8,316.1v-5.3c-3.3,2.4-6.7,4.4-10,5.6c-3.3,1.1-6.7,1.8-10.2,1.8c-3.8,0-7.3-0.7-10.4-1.8c-3.1-1.3-5.6-3.6-8-6
		c-1.8-2.2-3.1-4.7-3.8-7.6c-0.7-2.9-0.9-6.7-0.9-11.3v-33.1c0-3.6-0.4-6.2-1.1-8c-0.7-1.8-1.6-3.1-3.1-4.7h18.4
		c-1.6,1.6-2.4,2.7-3.1,4.7c-0.7,1.8-0.7,4.4-0.7,8V289c0,4.9,0,8.4,0.7,10.9c0.2,2.4,0.9,4.2,2,5.8c1.3,1.6,2.9,2.9,5.1,3.8
		c2,0.9,4.7,1.1,7.6,1.1c2.4,0,4.7-0.2,6.9-1.1c2-0.7,3.8-1.8,5.6-3.3c1.6-1.1,2.4-2.7,3.1-4.9c0.7-1.8,1.1-4.4,1.1-7.8v-35.1
		c0-3.8-0.4-6.4-1.1-8c-0.7-1.8-1.8-3.3-2.9-4.4h18.4c-1.6,1.1-2.4,2.7-3.1,4.7c-0.7,1.8-0.9,4.4-0.9,7.8v45.6c0,3.8,0.2,6.4,0.9,8
		c0.7,1.6,1.8,3.1,3.1,4.4h-13.6V316.1z"/>
	<path d="M492.6,245.9c-1.3,1.3-2.4,2.7-3.1,4.4c-0.4,1.8-0.7,4.4-0.7,8v59.6c-2.4,0-4.7-0.7-6.9-2.2c-1.8-1.6-4.4-4.4-7.8-8.7
		l-34.7-45.8v42.7c0,4,0.2,6.7,0.9,8c0.4,1.6,1.8,3.1,3.1,4.4h-15.1c1.3-1.3,2.4-2.9,2.9-4.4c0.4-1.8,0.9-4.4,0.9-8v-45.6
		c0-3.3-0.2-6-0.9-8c-0.4-1.8-1.6-3.1-2.9-4.4h13.6l39.6,52.9v-40.7c0-3.3-0.4-6-0.9-8c-0.4-1.8-1.6-3.1-2.9-4.4h14.9V245.9z"/>
	<path d="M509.2,303.7c0,3.8,0.2,6.4,0.7,8c0.4,1.6,1.8,3.1,3.1,4.4h-18.4c1.3-1.3,2.4-2.9,3.1-4.4c0.7-1.8,1.1-4.4,1.1-8v-45.6
		c0-3.6-0.4-6.2-1.1-8c-0.7-1.8-1.8-3.1-3.1-4.7H513c-1.6,1.6-2.4,2.7-3.1,4.7c-0.4,1.8-0.7,4.4-0.7,8L509.2,303.7L509.2,303.7z"/>
	<path d="M544.1,303.7c0,3.8,0.4,6.4,1.1,8c0.7,1.6,1.6,3.1,3.1,4.4h-18.2c1.1-1.3,2.2-2.9,2.7-4.4c0.7-1.8,1.1-4.4,1.1-8v-50.2
		h-5.3c-3.8,0-6.9,0.4-9.3,1.1c-2.2,0.7-4,1.8-5.3,3.1l3.1-11.6h48.2l-3.1,11.3c-1.1-1.1-2.4-2-4-2.7c-1.6-0.7-3.6-1.1-6-1.1h-8
		V303.7L544.1,303.7z"/>
	<path d="M600.3,303.7c0,3.8,0,6.4,0.9,8c0.4,1.6,1.6,3.1,3.1,4.4h-18.4c1.6-1.3,2.4-2.9,3.1-4.4c0.9-1.8,1.1-4.4,1.1-8v-19.1
		l-16.7-28c-1.3-2-2.7-4-4-6c-1.8-1.6-3.1-3.1-4.7-4.4h14.7l17.6,30.4l11.6-20c0.4-1.1,1.1-2.2,1.6-3.1c0.2-1.1,0.4-1.8,0.4-2.7
		c0-0.9-0.2-1.6-0.7-2.4c-0.4-0.7-1.3-1.6-2.4-2.2h16l-23.1,38.4V303.7L600.3,303.7z"/>
	<path d="M132.8,312.6l-7.8,18.7c-5.1,1.6-9.3,2.7-13.6,3.6c-4.2,0.9-8.2,1.1-12.2,1.1c-5.6,0-11.3-0.7-16.4-2.2
		c-5.6-1.3-10.9-3.6-15.8-6.7c-7.8-4.4-13.6-10.9-18-18.9c-4-8-6.2-17.1-6.2-26.4c0-7.3,1.3-14.2,4.4-21.3c3.1-6.7,7.8-12.9,13.3-18
		c5.3-4.9,11.1-8.7,18-11.1c6.7-2.4,13.6-3.8,21.6-3.8c3.3,0,7.3,0.4,11.3,1.1c4,0.4,8.2,1.6,12.9,2.9v16.4
		c-4.7-2.4-9.3-4.2-13.3-5.3c-4-1.1-8-1.8-12.2-1.8c-11.6,0-20.9,3.8-27.8,10.9c-6.9,6.9-10.4,16.4-10.4,28.2
		c0,13.1,3.8,23.3,10.9,31.1c7.3,8,16.7,11.8,28.4,11.8c4.7,0,10-0.7,15.1-2.2C120.1,319,126.1,316.6,132.8,312.6L132.8,312.6z"/>
</g>
<g id="acc-star">
	<polygon fill="#009B7C" points="117,91.9 124.1,37.4 167,79.2 	"/>
	<polygon fill="#007AC2" points="127.2,152.3 135,106.6 271.7,72.3 167,142.8 212.8,223 	"/>
	<polygon fill="#EF3E42" points="81.9,131.4 16.6,88.6 115,108.6 110.8,141.9 36.1,226.6 	"/>
	<polygon fill="#FFD520" points="61.9,206.8 127,165.4 214.8,236.8 124.3,192.1 	"/>
</g>
</svg>
