<?xml version="1.0" encoding="UTF-8"?>
<svg viewBox="0 0 200 75" version="1.1" xmlns="http://www.w3.org/2000/svg" xmlns:xlink="http://www.w3.org/1999/xlink">
    <!-- Generator: Sketch 42 (36781) - http://www.bohemiancoding.com/sketch -->
    <defs></defs>
    <g id="desktop" stroke="none" stroke-width="1" fill="none" fill-rule="evenodd">
        <g id="Medal_Company_Team_HD" transform="translate(-128.000000, -37.000000)" fill="#25415B">
            <g id="header" transform="translate(23.000000, -181.000000)">
                <g id="nav" transform="translate(101.000000, 0.000000)">
                    <g id="logo" transform="translate(4.000000, 218.000000)">
                        <path d="M79.4455636,16.6194166 L75.2450182,16.6194166 L75.2450182,20.832077 L70.9752,20.832077 L70.9752,16.6194166 L66.7752,16.6194166 L66.7752,12.3356241 L70.9752,12.3356241 L70.9752,8.12296376 L75.2450182,8.12296376 L75.2450182,12.3356241 L79.4455636,12.3356241 L79.4455636,16.6194166 Z M62.4066545,0.296793945 L62.4066545,28.5406053 C62.4066545,28.5406053 85.8148364,32.2460392 85.8148364,14.4777939 C85.8148364,-3.29045134 62.4066545,0.296793945 62.4066545,0.296793945 L62.4066545,0.296793945 Z" id="Fill-1"></path>
                        <polygon id="Fill-4" points="13.6309091 21.0477713 13.4689091 21.0477713 3.12381818 5.82769583 3.12381818 28.8619034 0 28.8619034 0 0.373507152 3.24490909 0.373507152 13.59 15.9207902 23.9367273 0.373507152 27.1816364 0.373507152 27.1816364 28.8619034 23.976 28.8619034 23.976 5.7866581"></polygon>
                        <polygon id="Fill-7" points="55.7475818 3.30349206 38.4239455 3.30349206 38.4239455 13.0299826 53.9224909 13.0299826 53.9224909 15.960077 38.4239455 15.960077 38.4239455 25.9316996 55.9504909 25.9316996 55.9504909 28.8617939 35.2199455 28.8617939 35.2199455 0.373397718 55.7475818 0.373397718"></polygon>
                        <path d="M104.2398,3.91451659 L97.7478,18.4429694 L110.689255,18.4429694 L104.2398,3.91451659 Z M118.722709,28.8616298 L115.274345,28.8616298 L111.947073,21.332026 L96.4899818,21.332026 L93.1234364,28.8616298 L89.8370727,28.8616298 L102.778527,0.169686398 L105.781255,0.169686398 L118.722709,28.8616298 Z" id="Fill-9"></path>
                        <polygon id="Fill-11" points="124.328127 0.373452435 127.532127 0.373452435 127.532127 25.8907166 143.517218 25.8907166 143.517218 28.8618487 124.328127 28.8618487"></polygon>
                    </g>
                </g>
            </g>
        </g>
    </g>
</svg>
