<svg class="primer-logo" viewBox="0 0 350 100" xmlns="http://www.w3.org/2000/svg">
    <g id="dots">
        <circle id="dot-7" cx="19.5" cy="21.5" r="2.5"></circle>
        <circle id="dot-6" cx="2.5" cy="11.5" r="2.5"></circle>
        <circle id="dot-5" cx="2.5" cy="30.5" r="2.5"></circle>
        <circle id="dot-4" cx="19.5" cy="40.5" r="2.5"></circle>
        <circle id="dot-3" cx="36.5" cy="30.5" r="2.5"></circle>
        <circle id="dot-2" cx="36.5" cy="11.5" r="2.5"></circle>
        <circle id="dot-1" cx="19.5" cy="2.5" r="2.5"></circle>
        <line id="line-1" class="line" x1="19.5" y1="40.5" x2="19.5" y2="21.5"></line>
        <line id="line-2" class="line" x1="19.5" y1="21.5" x2="36.5" y2="11.5"></line>
        <line id="line-3" class="line" x1="2.5" y1="30.5" x2="2.5" y2="11.5"></line>
        <line id="line-4" class="line" x1="2.5" y1="11.5" x2="19.5" y2="2.5"></line>
        <line id="line-5" class="line" x1="36.5" y1="11.5" x2="36.5" y2="30.5"></line>
        <line id="line-6" class="line" x1="36.5" y1="30.5" x2="19.5" y2="40.5"></line>
        <line id="line-7" class="line" x1="19.5" y1="40.5" x2="2.5" y2="30.5"></line>
        <line id="line-8" class="line" x1="19.5" y1="21.5" x2="2.5" y2="11.5"></line>
        <line id="line-9" class="line" x2="36.5" y2="11.5" x1="19.5" y1="2.5"></line>
    </g>
    <g id="text" transform="translate(80 4)">
        <path d="M79.06 35.946V0h4.804v35.946H79.06zM103.832 0l12.52 29.523h.11L128.93 0h6.854v35.946h-4.587V5.396h-.108L118.134 36h-3.724L101.46 5.397h-.162v30.55h-4.318V0h6.854zm70.375 0v3.994H153.32v11.82h16.46v3.833h-16.46v12.306h20.887v3.993h-25.584V0h25.584zm17.32 17.433h9.824c5.127 0 7.99-2.428 7.99-6.098V9.878c0-3.94-2.322-6.045-7.557-6.045h-10.256v13.6zm0 18.513h-4.75V0h15.707c7.88 0 11.604 3.67 11.604 9.608v1.835c0 4.803-3.13 8.42-8.582 9.445l9.985 15.058h-5.396l-9.66-14.735h-8.907v14.736zM43.012 17.433h9.824c5.127 0 7.988-2.428 7.988-6.098V9.878c0-3.94-2.32-6.045-7.556-6.045H43.012v13.6zm0 18.513h-4.75V0H53.97c7.88 0 11.603 3.67 11.603 9.608v1.835c0 4.803-3.13 8.42-8.582 9.445l9.986 15.058H61.58L51.917 21.21h-8.906v14.736zM4.75 18.35h9.122c5.612 0 7.77-2.428 7.77-6.475V10.31c0-3.94-2.212-6.423-7.77-6.423H4.75V18.35zM14.52 0c7.933 0 11.873 3.887 11.873 10.147v1.89c0 6.423-3.994 10.254-11.983 10.254H4.75v13.656H0V0h14.52z" fill-rule="evenodd"></path>
    </g>
</svg>
