<svg id="Layer_1" data-name="Layer 1" xmlns="http://www.w3.org/2000/svg" viewBox="0 0 846.75 276.96"><defs><style>.cls-1{fill:#ba0c2f;}.cls-2{fill:#fff;}</style></defs><title>uga-logo</title><path class="cls-1" d="M469.23,106.42h-0.09c-33.41,0-50.89,23.68-50.89,47.08,0,26.84,21.12,47.08,49.12,47.08,28.95,0,50-20.27,50-48.19C517.33,126.18,496.66,106.42,469.23,106.42Zm25.4,49.77c0,22.37-9.64,36.83-24.56,36.83C453.2,193,441,175.38,441,151.08c0-21.9,10.48-37.2,25.49-37.2h0.09C483.6,113.88,494.63,130.49,494.63,156.19Z"/><path class="cls-1" d="M323.55,161.17v34.34l-3.58.8c-8.42,1.9-18.89,4.26-28.63,4.26-33.45,0-55.07-18.15-55.07-46.24,0-32.92,28.52-47.91,55-47.91,12,0,29.26,4.76,29.26,4.76v21.47s-8.3-18.74-28.61-18.74c-13.63,0-25.95,9.28-30.65,23.08a49.37,49.37,0,0,0-2.4,15c0,28.46,17,41.19,33.85,41.19,2.52,0,5.91-.41,7.86-1.56s3-3.57,3-7V164.34c0-11.7-8.44-15.16-8.44-15.16h34.56S323.55,150.7,323.55,161.17Z"/><path class="cls-1" d="M697.15,161.17v34.34l-3.58.8c-8.42,1.9-18.89,4.26-28.63,4.26-33.45,0-55.07-18.15-55.07-46.24,0-32.92,28.52-47.91,55-47.91,12,0,29.26,4.76,29.26,4.76v21.47s-8.3-18.74-28.61-18.74c-13.63,0-25.95,9.28-30.65,23.08a49.37,49.37,0,0,0-2.4,15c0,28.46,17,41.19,33.85,41.19,2.52,0,5.91-.41,7.86-1.56s3-3.57,3-7V164.34c0-11.7-8.44-15.16-8.44-15.16h34.56S697.15,150.7,697.15,161.17Z"/><path class="cls-1" d="M381,190.69c-5.91,0-9.12-.18-11.41-1.24s-2.85-4.2-2.85-10.5V156.72h11.07c10,0,16.84.56,18.85,5.42V142.45c-1.91,4.83-8.44,5.69-18.85,5.69H366.75V120c0-3.93,0-3.93,5-3.93h13.35c8.18,0,12.2,1.36,15.55,5.48a40.08,40.08,0,0,1,5.5,10.31V108.46H338.93c2.11,1.41,7.63,6.43,7.63,20.36l0,48.78c0,17.24-8.42,20.83-8.42,20.83h69.63v-25.2a69.36,69.36,0,0,1-8.31,12.61C394.85,191,382.75,190.69,381,190.69Z"/><path class="cls-1" d="M574.4,134.45c0,6.9-2,11.88-6.41,15.65h0c-2.62,2.3-7,3.42-13.5,3.42h-2.63V121.16c0-2.57.26-3.81,0.91-4.39,1.06-.87,3.08-1.31,6-1.31C566.32,115.46,574.4,120.45,574.4,134.45Zm17.79,43.76c-4-6.53-10-16.28-13-21.8,6.4-2.67,16.14-8.88,16.14-21.92v0c0-.64.08-1.3,0.08-2a22.09,22.09,0,0,0-9.56-18.79c-5.69-3.83-12.66-5.25-25.72-5.25H524.68c2.11,1.41,7.63,6.43,7.63,20.36l0,48.78c0,17.24-8.42,20.83-8.42,20.83h36.41s-8.42-3.6-8.42-20.83V160.53h1.89c4.1,0,6.46,1.43,8.68,5.26,1.38,2.45,2.71,4.9,4,7.29,2.54,4.69,5.82,10.93,8.21,14.6,5.65,8.63,11.09,12.39,28.41,11.83,0,0,3-.1,5.21-0.3C608.26,199.21,602.32,194.9,592.18,178.22Z"/><path class="cls-1" d="M748.92,198.44s-8.42-3.6-8.42-20.83l0-48.78c0-13.93,5.51-19,7.63-20.36h-34.8c2.11,1.41,7.63,6.43,7.63,20.36l0,48.78c0,17.24-8.42,20.83-8.42,20.83h36.43Z"/><path class="cls-1" d="M846.75,198.44c-7.71-4.78-9.79-9.34-14.22-20.89-7.48-19.3-17.8-46.78-26-68.56l-0.2-.52h-9.56L768.2,178c-3.14,7.76-8.75,17.12-15.22,20.44h25.17c-5.39-2.25-4.17-9.32-2-14.89,0.42-1.17,2.17-5.48,4.46-11.07h28.52c2.29,6.34,4,11.15,4.27,11.86,1.8,5.07,1.64,8.88-2.83,14.1h36.12Zm-62.44-34.82c5.44-13.16,11.57-27.89,11.57-27.89L806,163.62H784.31Z"/><path d="M251.19,71.76V52c0-1.81-.59-2.34-5-2.51V46.85h20.26v2.63c-2.89.17-4.6,0.58-4.6,2.51V72.05c0,6.84,3.13,9.77,9.45,9.77a8.17,8.17,0,0,0,6-2.16c1.83-1.81,2.72-4.33,2.72-8.77V58.31c0-5.61-1.24-8.3-6.85-8.83V46.85h15.94v2.63c-5.25.64-5.49,3.22-5.49,8.83V71.88c0,8.95-4.9,14.38-15.41,14.38C257.45,86.26,251.19,82.17,251.19,71.76Z"/><path d="M310.06,58H309.7v15.9c0,5.67.71,8.3,6.38,8.83v2.63H300.37V82.69c5.26-.59,5.91-3.1,5.91-8.83V55c0-3.1-1.12-5.44-5.91-5.56V46.85h13.94l20.26,25.2h0.35V58.31c0-5.61-1.24-8.3-6.85-8.83V46.85h15.77v2.63c-5.26.64-5.49,3.22-5.49,8.83V85.68h-6Z"/><path d="M355.29,82.69c4.37-.18,5.08-0.7,5.08-2.51V52c0-1.81-.71-2.34-5.08-2.51V46.85h20.85v2.63c-4.37.17-5.08,0.7-5.08,2.51V80.18c0,1.81.71,2.34,5.08,2.51v2.63H355.29V82.69Z"/><path d="M392.65,53.28c-0.94-2.46-2-3.1-5.73-3.8V46.85h21.91v2.63c-5.14.29-5.85,1.35-5.14,3.33L412,76.56h0.59l7-19.94c1.77-5.09,1.77-6.32-3.78-7.13V46.85h14.94v2.63c-4,.82-4.55,2.22-6.44,7.07L413.2,85.68h-8.38Z"/><path d="M439.8,82.69c4.37-.18,5-0.7,5-2.51V52c0-1.81-.59-2.34-5-2.51V46.85h34.49l0.53,13.8-3.19.12c-2.3-6.61-4.55-11.11-11.75-11.11h-4.43V64.51h0.89c3.78,0,5.08-.53,7.15-5.73h2.66V73.22h-2.66c-2.07-5.2-3.37-5.91-7.15-5.91h-0.89V82.46h3.84c8.62,0,11-4.62,13.7-12.1l3.19,0.12-0.59,14.85H439.8V82.69Z"/><path d="M506.26,80.18c0,1.93,1.71,2.34,4.6,2.51v2.63H490.61V82.69c4.37-.18,5-0.7,5-2.51V52c0-1.81-.59-2.34-5-2.51V46.85h21c11.81,0,15.3,4.5,15.3,9.36,0,4.68-2.66,8.3-11.63,9.65V66c8.27,0.06,10.57,3.27,11,7.72L526.75,78c0.41,3.92,1,4.5,5.2,4.74v2.63c-2.3.18-4.25,0.23-6,.23-8.62,0-9.92-2.22-10.28-6.84l-0.35-4.5c-0.24-5.61-1.48-6.78-7.56-6.78h-1.48V80.18Zm2.36-15.44c6.08,0,7.32-1.93,7.32-7.78,0-4.8-1.65-7.31-7.74-7.31h-1.95V64.74h2.36Z"/><path d="M544.64,72.58h3.19c3,6.43,7.09,10.76,12,10.76,4.37,0,6.26-2.86,6.26-5.61,0-3.74-2.13-5.26-8.5-7.13-6.56-1.93-12.7-4.85-12.7-12,0-7.43,5.43-12.63,13.88-12.63a18.52,18.52,0,0,1,8.09,1.87l1.59-2.1h3V57.84h-3.19c-2.83-5.56-6.14-9-10.22-9A5,5,0,0,0,552.74,54c0,3.74,2.3,5,9,7,5.43,1.64,11.52,4.39,11.52,11.64s-4.37,13.62-14.59,13.62c-3.19,0-7.15-.59-9.45-1.87l-1.59,2.11h-3V72.58Z"/><path d="M586,82.69c4.37-.18,5.08-0.7,5.08-2.51V52c0-1.81-.71-2.34-5.08-2.51V46.85h20.85v2.63c-4.37.17-5.08,0.7-5.08,2.51V80.18c0,1.81.71,2.34,5.08,2.51v2.63H586V82.69Z"/><path d="M628.41,82.69c4.9-.12,5.85-0.7,5.85-2.51V49.66h-0.47c-4.31,0-6.85,4.15-9.8,11.11l-3.07-.12,0.3-13.8H658l0.3,13.8-3.07.12c-2.89-7.19-5.49-11.11-9.8-11.11h-0.47V80.18c0,1.81.94,2.4,5.85,2.51v2.63H628.41V82.69Z"/><path d="M699.6,56.09c2.71-4.5,2.36-6.08-2.3-6.61V46.85h14.35v2.63c-3.54.53-4.72,2-7.26,6l-8,12.57v12.1c0,1.81.71,2.34,5.08,2.51v2.63H680.58V82.69c4.37-.18,5.08-0.7,5.08-2.51V69.36L675.86,53c-1.42-2.34-2.36-3.16-6-3.57V46.85h21.26v2.63c-5,.23-5,1.29-3.66,3.62l6.61,12Z"/><path d="M740.11,66.21c0-12.34,7.85-20.29,19.9-20.29,12.34,0,19.9,7.72,19.9,20.06S772.06,86.26,760,86.26C747.67,86.26,740.11,78.6,740.11,66.21Zm28.35-.12c0-12.51-2.42-17.25-8.68-17.25s-8.21,4.74-8.21,17.25,2.42,17.25,8.68,17.25S768.46,78.66,768.46,66.09Z"/><path d="M790.78,82.69c4.37-.18,5-0.7,5-2.51V52c0-1.81-.59-2.34-5-2.51V46.85h34.49v13.8l-3.19.12c-2.48-7-5.2-11.11-12.4-11.11h-3.25V65h1c3.78,0,5.08-.41,7-5.26h2.66v14h-2.66c-2.07-5.2-3.25-5.91-7-5.91h-1v12.4c0,1.93.06,2.46,5.31,2.63v2.51h-21V82.69Z"/><path class="cls-2" d="M190.64,0V203c0,38.73-48.45,66-95.32,73.93C48.45,269,0,241.76,0,203V0H190.64Z"/><path d="M128.12,47.68a50.52,50.52,0,0,0-82.59,28h99A50.74,50.74,0,0,0,128.12,47.68Z"/><path d="M86.65,85.71H47.33a3.66,3.66,0,0,0-3.13,3.46v80.07a4.89,4.89,0,0,0,2.65,4.36,0.84,0.84,0,0,1,.45.75V195l6.2-5.88H86.73V174.35a0.84,0.84,0,0,1,.45-0.74,4.9,4.9,0,0,0,2.64-4.36V89.33A3.66,3.66,0,0,0,86.65,85.71Z"/><path d="M142.65,85.71H103.32a3.66,3.66,0,0,0-3.13,3.46v80.07a4.89,4.89,0,0,0,2.65,4.36,0.84,0.84,0,0,1,.45.75V195l6.2-5.88h33.23V174.35a0.84,0.84,0,0,1,.45-0.74,4.89,4.89,0,0,0,2.64-4.36V89.33A3.66,3.66,0,0,0,142.65,85.71Z"/><path class="cls-1" d="M35,244.5c15.74,11.07,37.64,19.68,60.29,23.72,22.65-4,44.55-12.65,60.29-23.72C167.67,236,182,221.93,182,203v-4.59H159.29v16.31a0.84,0.84,0,0,1-.84.84H143.56a0.84,0.84,0,0,1-.84-0.84V198.44H103.3v16.31a0.84,0.84,0,0,1-.84.84H87.57a0.84,0.84,0,0,1-.84-0.84V198.44H47.3v16.31a0.84,0.84,0,0,1-.84.84H31.57a0.84,0.84,0,0,1-.84-0.84V198.44H8.61V203C8.61,221.93,23,236,35,244.5Z"/><path d="M30.73,174.35a0.84,0.84,0,0,1,.45-0.74,4.9,4.9,0,0,0,2.64-4.36V89.33a3.67,3.67,0,0,0-3.14-3.61A0.84,0.84,0,0,1,30,84.88V76.53a0.84,0.84,0,0,1,.84-0.84h6a59.07,59.07,0,0,1,116.38,0h6a0.84,0.84,0,0,1,.84.84v8.35a0.84,0.84,0,0,1-.73.83,3.67,3.67,0,0,0-3.15,3.46v80.07a4.89,4.89,0,0,0,2.66,4.36,0.84,0.84,0,0,1,.45.75V195l6.2-5.88H182V8.61H8.61V189.1H30.73V174.35Z"/><path class="cls-2" d="M68.9,244.92V229l-8.44.58v1.1h0.2a3.86,3.86,0,0,1,2.74.69,2.35,2.35,0,0,1,.55,1.81v11.79c0,1.09-1.08,1.33-3.34,1.42v1.13H72.28v-1.13C70,246.25,68.9,246,68.9,244.92Z"/><path class="cls-2" d="M78.61,235.77c0.54-2.22,1.12-2.86,3.79-2.86h6.69l-0.12.17L79,246.72v1H82.9l3.76-7.55L91.87,231v-2H77.73l-0.17,6.77h1.06Z"/><path class="cls-2" d="M106.93,237l0.25-.09c2.43-.91,3.66-2.24,3.66-3.93,0-2.13-2.14-4.43-6.85-4.43-4.38,0-7.2,2.27-7.2,5.77,0,1.83,1,3.35,3.08,4.53l0.19,0.11-0.21.08c-2.41,1-3.63,2.37-3.63,4.23,0,3,2.85,4.73,7.83,4.73,4.21,0,7.38-2.49,7.38-5.8,0-2.2-1.39-3.86-4.26-5.09Zm-3.35-7.2c2.17,0,3.57,1.25,3.57,3.18a4.9,4.9,0,0,1-1.4,3.5l0,0.05-0.07,0c-2.44-.89-4.81-1.95-4.81-4.13A2.6,2.6,0,0,1,103.58,229.78Zm0.45,17a3.92,3.92,0,0,1-4-3.87,4.49,4.49,0,0,1,1.31-3.21l0.05-.06,0.07,0a6.74,6.74,0,0,0,1,.35c3.52,1.16,4.76,2.17,4.76,3.83S106,246.73,104,246.73Z"/><path class="cls-2" d="M124.58,236.32a10,10,0,0,0-4.37.89l-0.16.07V237.1l0.21-4.34h10.18l0.28-3.75h-12.2l-0.38,9.21,0.92,0.73a7.8,7.8,0,0,1,4.08-1.14c2.48,0,3.9,1.56,3.9,4.28,0,3-1.3,4.58-3.87,4.58a5.59,5.59,0,0,1-2.6-.65l-0.14-.1,0.15-.08a2.64,2.64,0,0,0,1.37-2.26,2.29,2.29,0,0,0-2.37-2.46,2.46,2.46,0,0,0-2.64,2.55c0,2.66,2.74,4.25,7.32,4.25,5.05,0,7.35-3.16,7.35-6.1C131.64,237.76,128,236.32,124.58,236.32Z"/><path d="M177,249.16h-2.1v-1.42h5.8v1.42h-2.1v5.62H177v-5.62Zm5.18-1.42h1.69l1.85,3,1.85-3h1.64v7h-1.51V250l-1.94,3.08h-0.14L183.67,250v4.75h-1.51v-7Z"/></svg>