<?xml version="1.0" encoding="utf-8"?>
<!-- Generator: Adobe Illustrator 16.0.0, SVG Export Plug-In . SVG Version: 6.00 Build 0)  -->
<!DOCTYPE svg PUBLIC "-//W3C//DTD SVG 1.1//EN" "http://www.w3.org/Graphics/SVG/1.1/DTD/svg11.dtd">
<svg version="1.1" id="Layer_1" xmlns="http://www.w3.org/2000/svg" xmlns:xlink="http://www.w3.org/1999/xlink" x="0px" y="0px"
	 width="100px" height="100px" viewBox="0 0 100 100" enable-background="new 0 0 100 100" xml:space="preserve">
<g id="White_1_">
	<path fill="#874341" d="M66.013,32H33.987C32.89,32,32,32.89,32,33.987v32.026C32,67.11,32.89,68,33.987,68h17.241V54.059h-4.691
		v-5.433h4.691v-4.007c0-4.65,2.84-7.182,6.988-7.182c1.986,0,3.694,0.147,4.192,0.214v4.859l-2.877,0.002
		c-2.257,0-2.692,1.072-2.692,2.645v3.469h5.38l-0.7,5.433h-4.68V68h9.174C67.11,68,68,67.11,68,66.013V33.987
		C68,32.89,67.11,32,66.013,32z"/>
</g>
</svg>
